<?xml version="1.0" encoding="iso-8859-1"?>
<!-- Uploaded to: SVG Repo, www.svgrepo.com, Generator: SVG Repo Mixer Tools -->
<svg fill="#000000" height="800px" width="800px" version="1.1" id="Layer_1" xmlns="http://www.w3.org/2000/svg" xmlns:xlink="http://www.w3.org/1999/xlink" 
	 viewBox="0 0 512 512" xml:space="preserve">
<g>
	<g>
		<path d="M512,100.74c0-13.954-5.434-27.072-15.301-36.937l-48.501-48.501C438.332,5.434,425.214,0,411.26,0
			c-13.953,0-27.072,5.434-36.938,15.301L361.604,28.02l-9.402-9.402l-71.123,71.123l9.402,9.402L45.129,344.494L0,512
			l167.506-45.129L412.857,221.52l9.402,9.402l71.123-71.123l-9.402-9.402l12.719-12.719C506.566,127.811,512,114.693,512,100.74z
			 M96.576,340.259l217.511-217.51l25.78,25.78L122.361,366.033c-3.443,3.443-8.021,5.339-12.889,5.339
			c-4.868,0-9.446-1.896-12.89-5.339C89.476,358.927,89.474,347.367,96.576,340.259z M47.324,464.676l4.838-17.96l13.122,13.122
			L47.324,464.676z M102.475,449.817l-40.294-40.292l6.63-24.61c1.28,1.636,2.658,3.218,4.164,4.724
			c9.239,9.239,21.366,14.536,34.345,15.065c0.522,12.483,5.532,24.812,15.041,34.321c1.505,1.504,3.088,2.883,4.724,4.163
			L102.475,449.817z M171.741,415.424c-7.108,7.102-18.669,7.099-25.774-0.006c-7.107-7.107-7.107-18.669-0.003-25.777
			c0.001-0.001,0.002-0.002,0.003-0.003l217.504-217.504l25.781,25.781L171.741,415.424z M422.259,183.71L328.29,89.741
			l23.911-23.911l93.969,93.969L422.259,183.71z M473.093,114.072l-12.719,12.719l-75.166-75.166l12.719-12.719
			c3.562-3.561,8.297-5.523,13.332-5.523c5.035,0,9.771,1.962,13.332,5.523l48.501,48.501c3.561,3.561,5.523,8.296,5.523,13.332
			C478.616,105.776,476.654,110.511,473.093,114.072z"/>
	</g>
</g>
</svg>